<svg width="100" height="100" viewBox="0 0 100 100" fill="none" xmlns="http://www.w3.org/2000/svg">
<path d="M37.5 50.25C37.5 53.7018 34.7018 56.5 31.25 56.5C27.7982 56.5 25 53.7018 25 50.25C25 46.7982 27.7982 44 31.25 44C34.7018 44 37.5 46.7982 37.5 50.25Z" fill="#3F516B"/>
<path d="M56.25 50.25C56.25 53.7018 53.4518 56.5 50 56.5C46.5482 56.5 43.75 53.7018 43.75 50.25C43.75 46.7982 46.5482 44 50 44C53.4518 44 56.25 46.7982 56.25 50.25Z" fill="#3F516B"/>
<path d="M68.75 56.5C72.2018 56.5 75 53.7018 75 50.25C75 46.7982 72.2018 44 68.75 44C65.2982 44 62.5 46.7982 62.5 50.25C62.5 53.7018 65.2982 56.5 68.75 56.5Z" fill="#3F516B"/>
</svg>
